<?xml version="1.0" encoding="UTF-8" standalone="no"?>
<svg
   viewBox="0 0 1290.0828 263.54999"
   version="1.1"
   id="black-ends-logo"
   sodipodi:docname="logo.svg"
   inkscape:version="1.2.2 (b0a8486541, 2022-12-01)"
   width="1290.0828"
   height="263.54999"
   xmlns:inkscape="http://www.inkscape.org/namespaces/inkscape"
   xmlns:sodipodi="http://sodipodi.sourceforge.net/DTD/sodipodi-0.dtd"
   xmlns="http://www.w3.org/2000/svg"
   xmlns:svg="http://www.w3.org/2000/svg">
  <defs
     id="defs1837" />
  <sodipodi:namedview
     id="namedview1835"
     pagecolor="#505050"
     bordercolor="#eeeeee"
     borderopacity="1"
     inkscape:showpageshadow="0"
     inkscape:pageopacity="0"
     inkscape:pagecheckerboard="0"
     inkscape:deskcolor="#505050"
     showgrid="false"
     inkscape:zoom="1.6224806"
     inkscape:cx="631.74869"
     inkscape:cy="149.77066"
     inkscape:window-width="2558"
     inkscape:window-height="1037"
     inkscape:window-x="0"
     inkscape:window-y="20"
     inkscape:window-maximized="1"
     inkscape:current-layer="svg1833" />
  <path
     class="black-ends-logo-letter"
     d="m 1273.16,109.95 c -5,-2.52 -10.14,-5 -15.1,-7.62 a 7.66,7.66 0 0 1 -2.47,-3 c -7.75,-12.95 -15.1,-14.06 -28.08,-10.34 -3.1,0.89 -6.28,3.11 -6,7.46 0,0.57 -0.47,1.18 -0.75,1.76 -5,10.54 -3.14,17.22 6.59,24.13 0.29,0.21 0.23,0.91 0.43,1.82 l -4.6,0.73 -0.75,1.28 c 3.62,2.46 7,5.34 10.9,7.32 7.27,3.7 14.76,7 22.23,10.25 7.26,3.17 12.09,9 16.62,15.05 1.08,1.44 0.83,3.78 1.62,5.52 a 28.15,28.15 0 0 0 4.15,6.57 c 4.77,26.15 -6.76,45.67 -26.62,61.44 -0.7,0.56 -2.12,0.2 -3.49,0.28 -1.23,4.24 -20.86,10.09 -28.23,7.52 0.19,0.71 0.34,1.31 0.55,2.13 -6.3,-1 -12.48,-1.78 -18.62,-2.87 -16.9,-3 -28.42,-13.5 -37.27,-27.4 a 53.07,53.07 0 0 1 -4.86,-10.93 4.07,4.07 0 0 1 1.31,-3.66 c 6.52,-3.88 13.42,-4.24 20.94,-1.77 -3.37,2.81 -8.14,-2.36 -11,2.81 6.83,0.87 13.09,2.12 19.38,2.31 3.84,0.11 5.66,2.28 7.68,4.61 4.8,5.49 10,10 18.89,8.15 l -5.66,-1.12 -0.15,-1.06 c 2.19,-0.68 4.35,-1.46 6.56,-2 15.95,-4.12 18.81,-22.87 7.81,-32.75 a 54.12,54.12 0 0 0 -7.72,-6.17 c -4.15,-2.53 -7.93,-5.59 -12.58,-7.48 a 61,61 0 0 1 -14.19,-8.1 c -5.17,-4 -10.27,-8.46 -14.19,-13.63 a 40.22,40.22 0 0 1 -6.65,-14.9 c -1.28,-5.55 -1.17,-11.5 -1.07,-17.27 0.1,-5.77 0.18,-11.59 1.72,-17 1.3,-4.57 4.28,-8.86 7.26,-12.69 2.34,-3 6.28,-4.73 8.71,-7.68 7.37,-9 16.68,-12.86 28.18,-12.88 6.19,0 12.41,-2 18.56,-1.74 22.35,1 40.61,9.76 52.7,29.35 1.51,2.44 3.36,4.92 3.92,7.62 1.15,5.64 -1.42,8.29 -8.79,10.93 a 62.32,62.32 0 0 0 -7.5,3.83 z"
     id="black-ends-logo-s"
     inkscape:label="S">
    <title
       id="title2432">S</title>
  </path>
  <path
     class="black-ends-logo-letter"
     d="m 1069.81,229.04 c -8.56,-1.48 -19.29,-3.42 -30.06,-5.17 -5.41,-0.88 -10.88,-1.39 -16.33,-2.09 a 38.06,38.06 0 0 1 -5.66,-0.85 c -8.21,-2.34 -9.24,-4.69 -7.5,-12.9 1.63,-7.65 2.69,-15.43 3.64,-23.2 0.95,-7.77 1.23,-15.35 2.16,-23 0.31,-2.53 3.05,-6.62 2.45,-7.08 -3.5,-2.69 -0.91,-5.49 -0.32,-7.63 2,-7.09 5.51,-13.84 6.76,-21 0.69,-3.95 3,-8.78 -0.67,-13.11 -0.82,-1 0.17,-3.7 0.66,-5.53 0.87,-3.2 2.47,-6.27 2.9,-9.51 0.7,-5.22 0.46,-10.56 1.1,-15.79 0.33,-2.68 2.27,-5.13 3.39,-7.5 5,-10.66 2.42,-22.07 4.66,-32.89 0.6,-2.95 0.59,-7.18 2.47,-8.48 a 37.36,37.36 0 0 1 14.37,-6.11 c 3.44,-0.58 7.32,2 11.09,2.7 13.49,2.44 27.08,4.34 40.5,7.07 13.9,2.83 24.55,10.57 32.78,22.3 a 59.57,59.57 0 0 1 11.29,32.1 c 0.28,6.7 -1.79,13.51 -2.91,20.26 -1.68,10.13 -3.24,20.29 -5.25,30.36 -1.47,7.37 -3.73,14.58 -5.38,21.92 -1.65,7.34 -2.74,14.78 -4.56,22.05 a 37.59,37.59 0 0 1 -4.37,9.55 c -2.64,4.55 -5,9.51 -8.65,13.16 -4,4.06 -9.42,6.77 -14.09,10.23 -9.59,7.1 -20.63,9.34 -34.47,10.14 z m 0.32,-34.43 v -1.39 a 14.94,14.94 0 0 0 3.58,-0.51 c 5.14,-2.09 10.75,-3.58 15.21,-6.69 5.36,-3.72 7.44,-10.19 9,-16.37 1.68,-6.78 2.69,-13.73 4,-20.61 1.36,-7.19 2.55,-14.42 4.16,-21.56 1.66,-7.39 4,-14.63 5.55,-22.05 1,-4.77 1.88,-9.86 1.23,-14.59 -1.2,-8.84 -6.35,-15.49 -14.57,-19.26 -2.46,-1.12 -5.42,-1.1 -8.13,-1.74 a 36.65,36.65 0 0 1 -4.12,-1.45 c -4.84,-1.76 -9.18,-0.65 -10,2.67 -1,4.21 -2,8.43 -2.74,12.68 -1.3,7.5 -2.42,15 -3.57,22.3 3.28,0.55 7.12,0.85 10.71,2 1.66,0.51 3.11,2.39 4.19,4 1.94,2.83 4.83,5.88 4.89,8.88 0.06,3 0.54,4.29 2.64,5.86 1.56,1.17 2.89,2.35 0.4,4.65 -1.65,1.52 -2.32,4.64 -2.49,7.1 -0.36,5.34 0.11,10.73 -0.19,16.07 -0.2,3.55 -0.91,7.7 -5.27,8.17 a 54,54 0 0 1 -14.47,-0.39 c -3.35,-0.56 -6.44,-2.68 -10.4,-4.44 -1.5,6.58 -3.22,13.06 -4.37,19.63 -0.57,3.23 0.15,6.68 -0.23,10 -0.18,1.53 -1.59,2.91 -3,5.32 l 24.49,3.67 c 0.06,-0.45 0.13,-0.91 0.19,-1.36 z"
     id="black-ends-logo-d"
     inkscape:label="D">
    <title
       id="title2430">D</title>
  </path>
  <path
     class="black-ends-logo-letter"
     d="m 892.11,107.06 c -0.72,6.63 -1.23,13.29 -2.21,19.88 -1.07,7.13 -2.57,14.21 -3.87,21.31 a 8.09,8.09 0 0 0 -0.07,1 c -0.67,9.05 -1,18.14 -2.12,27.14 a 103.74,103.74 0 0 1 -3.91,18 c -0.47,1.56 -3.51,3.38 -5.31,3.32 -8.37,-0.28 -16.73,-1.1 -25.07,-1.89 -2.63,-0.26 -5,-6.17 -4.56,-9.92 1.4,-11.38 2.57,-22.79 4,-34.17 1.54,-12.35 3.42,-24.65 4.86,-37 1.25,-10.77 2,-21.6 3.15,-32.38 1.11,-10.09 2.67,-20.14 3.8,-30.22 0.9,-8 1.46,-16.06 2.16,-24.09 0.64,-7.28 1.23,-14.56 1.91,-21.84 0.46,-5 4.79,-6.07 8.16,-6.07 a 94.44,94.44 0 0 1 19.53,2.14 c 9.35,2 13.68,8.7 15.45,17.77 1.09,5.56 2,11.76 5.11,16.17 4.27,6 3.16,13.36 6.67,19.37 0.8,1.37 -0.66,3.9 -0.44,5.82 0.26,2.35 0.53,5.92 2,6.68 3.39,1.77 2.25,5.06 3.72,7.2 4.54,6.57 2.52,15 6.54,21.86 1.13,-8.06 2.65,-15.9 3.18,-23.8 0.29,-4.35 -1.52,-8.79 -1.62,-13.21 -0.25,-11.17 -0.21,-22.35 0,-33.52 0.07,-3.37 1,-6.74 1.78,-10.08 1.11,-5.07 5.08,-8.89 10,-8.52 9.48,0.69 19,1.73 28.35,3.18 4.8,0.74 7.12,6.76 5,11.1 a 5.67,5.67 0 0 0 -0.34,2 c -0.68,7.83 -1.07,15.71 -2.1,23.5 -0.89,6.74 -2.5,13.38 -3.79,20.07 a 8.1,8.1 0 0 0 -0.1,1 c -0.68,9.85 -1.3,19.7 -2,29.55 -0.59,7.89 0.27,16.35 -2.37,23.51 -3.92,10.62 -3,21.2 -3.77,31.89 -0.46,6.5 -2.46,12.88 -3.73,19.33 -0.16,0.8 0,1.66 -0.12,2.49 -0.66,6.79 -1.12,13.62 -2.06,20.38 -1,7.12 -3.47,9.2 -11,8.87 -6.86,-0.3 -13.72,-1.13 -20.55,-2 -5.6,-0.69 -8.77,-4.77 -10.15,-9.6 -4.37,-15.16 -8.23,-30.46 -12.3,-45.71 -2.21,-8.32 -4.49,-16.62 -6.64,-25 -1.34,-5.16 -2.48,-10.37 -3.72,-15.56 z"
     id="black-ends-logo-n"
     inkscape:label="N">
    <title
       id="title2428">N</title>
  </path>
  <path
     class="black-ends-logo-letter"
     d="m 772.3,83.21 c 9.89,0.49 19.6,1 29.3,1.45 5.27,0.25 7.53,3.91 10.14,8.64 2.37,4.31 0.4,6.91 -0.13,10.51 -0.78,5.28 0.15,10.79 -0.17,16.17 a 17.77,17.77 0 0 1 -2.39,8.55 c -1.07,1.6 -4.21,2.84 -6.24,2.61 -9.71,-1.09 -19.35,-2.77 -29,-4.19 -2.65,-0.4 -6.4,3.22 -6.67,6.37 -0.69,8 -1.48,16 -2,24.07 -0.17,2.74 0.28,5.39 4.37,5.12 6.6,-0.45 13.22,-0.78 19.82,-0.68 3.41,0.06 6.8,1.14 10.19,1.81 0.59,0.12 1.31,0.89 1.65,0.72 7.93,-4 14.7,1.54 22.27,2.1 0,10.16 0.19,19.8 -0.12,29.42 a 18.09,18.09 0 0 1 -2.66,8.68 c -0.93,1.48 -3.82,2.52 -5.77,2.43 -9.27,-0.43 -18.52,-1.44 -27.78,-2 -18,-1.12 -35.93,-2 -53.88,-3.14 -6.13,-0.37 -9.55,-4 -9.22,-10.18 0.74,-14.19 1.72,-28.37 2.73,-42.54 0.51,-7.22 1.23,-14.41 1.92,-21.61 1.73,-18 3.58,-36 5.2,-54 0.55,-6.12 0.57,-12.3 0.81,-18.45 q 0.85,-21.52 1.65,-43.06 c 0.09,-2.32 5.63,-8.13 8.54,-8 6.16,0.24 12.64,-1.41 18.31,2.52 a 2.46,2.46 0 0 0 1.42,0.34 c 7.49,-0.16 15,-0.44 22.46,-0.49 3.07,0 6.13,0.43 9.19,0.66 3.93,0.3 7.85,0.54 11.78,0.88 4.24,0.37 8.77,-1.17 12.55,2.54 1,0.95 3.57,0.09 5.35,0.42 9.22,1.7 10.76,3.57 11.06,12.44 0.17,5.12 0.53,10.25 0.9,15.36 0.45,6.2 -4.56,15.34 -8.57,14.27 -4.71,-1.27 -10,1.77 -14.38,-2.67 -1.34,-1.37 -5.12,-0.24 -7.78,-0.41 -9.63,-0.62 -19.26,-1.24 -28.88,-2 -2.77,-0.22 -4.09,1.12 -4.24,3.54 -0.64,10.27 -1.08,20.57 -1.73,31.8 z"
     id="black-ends-logo-e"
     inkscape:label="E">
    <title
       id="title2426">E</title>
  </path>
  <path
     class="black-ends-logo-letter"
     d="m 571.95,67.9 c 2.33,-1.82 4.34,-2.68 5.19,-4.19 2.17,-3.89 3.95,-8 8.47,-9.79 0.26,-0.11 0.66,-0.43 0.63,-0.58 -1.32,-6.74 7,-9.26 6.91,-15.62 0,-0.85 3,-1.74 4,-2.28 1.78,-3.17 3.12,-6.23 5.06,-8.85 a 100,100 0 0 1 9.82,-11.78 c 4.51,-4.46 11.38,-4.41 17.1,-1.36 a 27.21,27.21 0 0 0 9.92,2.7 c 5.2,0.52 13.39,9 12.7,13.75 -0.47,3.25 -3.09,4.6 -5.52,2.85 -0.6,3 -1.15,6.07 -1.82,9.08 -1.94,8.83 -10.9,12.62 -14.59,20.31 -2.43,5 -5.82,9.6 -8.91,14.3 a 17.67,17.67 0 0 1 -3,2.85 c -0.68,1.57 -1.14,3.61 -2.29,5.13 -3.07,4.09 -6.79,7.72 -9.55,12 a 32.88,32.88 0 0 0 -4.42,10.79 c -0.84,3.92 -2.62,5.11 -7.71,3.61 4.2,12.07 8.15,23 11.79,34.13 1.33,4 1.84,8.3 2.82,12.44 0.72,3 1.61,6 2.42,9 0.17,0.62 0.16,1.44 0.56,1.83 4.65,4.53 5.17,11 7.24,16.56 3,8 4.72,16.5 7.5,26.62 -4.25,-0.84 -7.08,-1.47 -9.95,-1.94 -4.84,-0.78 -9.76,-1.17 -14.52,-2.26 -4.38,-1 -9,-2 -12.74,-4.37 -2.78,-1.76 -5.09,-5.35 -6.13,-8.6 -2.94,-9.23 -5.12,-18.71 -7.6,-28.1 -2.85,-10.8 -5.53,-21.66 -8.63,-32.39 -1.25,-4.34 -3.44,-8.41 -5.18,-12.61 l -1.32,0.16 c -0.75,5.17 -1.68,10.32 -2.18,15.51 -0.56,5.76 0,11.7 -1.2,17.31 -2.69,13.05 -0.48,26.74 -5.42,39.48 -1.49,3.82 -3.92,4.43 -8.06,3.81 a 73.47,73.47 0 0 0 -14.43,-0.9 c -9.12,0.44 -13.4,-2.11 -15.54,-11.47 -1.41,-5.06 -0.41,-6.06 0.5,-13.83 1.4,-3.87 2.73,-7.58 4.09,-11.29 a 7.38,7.38 0 0 0 0.7,-1.69 c 0.67,-7.84 1.08,-15.71 2,-23.52 1,-8.78 2.49,-17.49 3.64,-26.25 0.68,-5.22 1.25,-10.46 1.66,-15.7 1,-12.47 1.61,-25 2.85,-37.39 0.51,-5.07 2.51,-10 3.66,-15 A 2.25,2.25 0 0 0 532.53,40 c 0.65,-8.32 1.49,-16.64 1.86,-25 0.31,-6.67 5,-15 10.13,-15 6.57,0 13.45,0.45 19.6,2.51 3.86,1.3 7.61,5.38 9.6,9.16 1.99,3.78 1.62,8.57 -0.27,13.32 a 15.47,15.47 0 0 0 0.1,12.91 c 2.23,4.74 1.74,11 1.56,16.52 -0.16,3.92 -1.73,7.75 -3.16,13.48 z"
     id="black-ends-logo-k"
     inkscape:label="K">
    <title
       id="title2424">K</title>
  </path>
  <path
     class="black-ends-logo-letter"
     d="m 515.36,186.94 c -2.26,4.75 -4.07,8.86 -6.16,12.84 a 25,25 0 0 1 -3.65,4.88 c -3.31,3.7 -6.41,7.68 -10.19,10.83 -4.53,3.79 -9.34,7.54 -14.63,10.07 -11.64,5.58 -24.18,6.32 -36.78,4.12 -2.26,-0.39 -4.07,-3.32 -5.72,-5.51 -14.15,-3.15 -25.77,-10.82 -36.07,-21.19 -6.76,-6.83 -10.51,-15.38 -13.45,-23.93 -2.76,-8 -4.42,-16.83 -2,-25.69 0.9,-3.29 0.67,-6.87 1.21,-10.27 1.22,-7.76 2.77,-15.46 3.82,-23.24 0.49,-3.62 -0.23,-7.41 0.22,-11 1,-8.08 2.42,-16.11 3.71,-24.16 0.7,-4.37 0.9,-8.94 2.38,-13.05 1.76,-4.93 4.79,-9.39 7,-14.18 3.11,-6.69 10.3,-8.83 14.94,-13.8 3.78,-4.06 8.77,-5.53 14,-6.46 0.61,-0.11 1.45,-0.26 1.71,-0.69 3.42,-5.52 9,-3.54 13.38,-3 8.21,0.92 16.69,2.09 24.28,5.11 6.81,2.72 13.1,7.46 18.67,12.38 6.27,5.56 11.46,12.32 17.46,18.93 0,0 1.77,-0.25 2.28,0.43 1.91,2.54 4.26,5.21 4.88,8.15 1.27,6.07 1.55,12.35 2.22,18.54 0.93,8.65 -4.21,11.49 -12.43,12 -6.57,0.38 -13.26,-1.94 -19.93,-2.31 -4.59,-0.25 -6.43,-3 -7.95,-6.37 a 42.52,42.52 0 0 1 -2.61,-8.49 c -1.67,-7.74 -12.3,-16.73 -20.24,-16.57 -3.9,0.07 -8,0.24 -11.61,1.46 -5.77,1.94 -8,7 -8.11,12.72 -0.22,10.05 0.19,20.12 -0.12,30.16 -0.43,13.78 -1,27.58 -2.14,41.31 -0.33,3.94 -2.9,7.7 -4.61,12 h -3 c -0.26,3.05 8.34,9.38 11.08,8.94 a 13.7,13.7 0 0 1 7,1 c 3.53,1.39 6.09,3.28 10.69,0.94 3.68,-1.87 8.29,-2.37 11.58,-5.44 3.29,-3.07 6.34,-6.41 9.63,-9.5 a 5.28,5.28 0 0 1 3.33,-1.54 c 6.26,0.21 12.61,0.18 18.74,1.28 3,0.55 5.62,3.36 8.81,5.39 2.51,-3.09 6.17,-2.83 8.86,-0.84 1.11,-0.31 2.11,10.69 -0.48,13.75 z"
     id="black-ends-logo-c"
     inkscape:label="C">
    <title
       id="title2420">C</title>
  </path>
  <path
     class="black-ends-logo-letter"
     d="m 328.36,66.45 c 0.63,-0.67 1.87,-2.52 2.26,-2.35 a 9.93,9.93 0 0 1 3.29,2.83 35.73,35.73 0 0 1 2.46,3.44 c 1.9,6.6 3.45,13.09 5.69,19.33 1.1,3 3.49,5.6 5.28,8.39 0.25,0.39 0.6,0.9 0.53,1.29 -1.9,11.18 7.61,18.1 10.33,27.6 2,7.09 5.45,13.77 7.57,20.83 2.24,7.45 3.86,15.1 5.41,22.73 1.2,5.91 1.59,12 2.85,17.88 1.21,5.69 3,11.26 4.67,16.85 2.84,9.51 5.84,19 8.63,28.51 0.58,2 0.54,4.19 0.87,7 -9.73,1.07 -19.11,2.32 -28.53,3 -5.14,0.4 -8.25,-3 -9.82,-8 -2.23,-7.09 -5.1,-14 -7.92,-21.57 l -45.88,5.37 c 1,8.73 2.11,16.48 2.76,24.27 0.47,5.53 -4.32,7.15 -8.1,7.81 a 170.7,170.7 0 0 1 -23,2.13 c -3.83,0.15 -5.62,-2.95 -5.66,-6.47 -0.15,-11.16 -1.57,-22.58 0.28,-33.42 3.18,-18.62 0.72,-37.15 1.6,-55.68 0.92,-19.19 0.23,-38.55 2.5,-57.56 1.35,-11.27 0.87,-22.38 1.56,-33.55 0.16,-2.75 5.3,-6.65 8.82,-7.26 6.13,-1.07 12.19,-2.57 18.3,-3.82 a 23.81,23.81 0 0 1 3.49,-0.12 c 5.76,-0.32 11.53,-0.56 17.28,-1 4.83,-0.38 7.73,2.4 10,6 a 35.12,35.12 0 0 1 2.48,5.54 z m -25.21,28.15 -2.62,0.7 1.59,66.25 1.78,-0.8 c 2.66,1.64 6.43,2.67 7.75,5.05 3.44,6.21 5.82,13 8.95,20.36 l 11.74,0.58 c -1.19,-3.76 -2.32,-7.18 -3.38,-10.63 -2.89,-9.47 -5.71,-19 -8.65,-28.41 q -6.14,-19.76 -12.41,-39.48 c -1.47,-4.58 -3.16,-9.08 -4.75,-13.62 z"
     id="black-ends-logo-A"
     inkscape:label="A">
    <title
       id="title2422">A</title>
  </path>
  <path
     class="black-ends-logo-letter"
     d="m 211.23,259.8 2.36,-1.9 -38.43,-3.44 c -8.46,1.56 -18.68,2.66 -28,-5.37 l -0.86,1.26 c 0,-2.75 1.13,-6.37 -0.19,-8.1 -6,-7.77 0.13,-15.54 -0.68,-23.25 -0.46,-4.32 0.56,-8.79 0.87,-13.19 0.14,-2 -1.92,-4.83 2.13,-5.2 a 41.45,41.45 0 0 0 -1.36,-4.17 c -0.68,-1.53 -1.6,-2.95 -2.42,-4.42 l 5.65,-0.58 c -1.74,-6.18 2.1,-12.95 -0.38,-20 -0.82,-2.32 0,-5.21 1,-7.54 -0.91,-1.9 -1.83,-3.8 -2.74,-5.71 l 1.42,-0.82 3,2.76 c -1,-6.31 -2.07,-11.78 -2.64,-17.31 a 35.11,35.11 0 0 1 2.89,-18.4 c 1.78,-4 1.57,-8.9 2,-13.42 0.59,-6.8 0.94,-13.63 1.35,-20.45 0.29,-4.79 0,-9.68 0.89,-14.36 0.92,-5 -0.06,-10.73 3.78,-14.89 1.46,-1.57 3.87,-3.3 5.79,-3.24 7.38,0.24 14.74,1.11 22.08,1.94 a 5.46,5.46 0 0 1 3.1,2 c 1.74,2.11 3.22,4.42 4.91,6.79 2.09,-2.71 3.23,-6.85 6.61,-1.56 1.14,1.76 4.88,2 5.77,3.75 1.37,2.7 1.61,6.11 1.73,9.23 0.1,2.73 -0.71,5.48 -1,8.24 -0.26,2.92 -0.17,5.88 -0.54,8.79 -1.57,12.59 -4.71,25.58 0.24,37.64 4.29,10.43 0.22,17.34 -5.78,24.52 -1.77,2.11 -3.19,4.13 -1.38,7 a 6,6 0 0 1 0.5,3.38 c -0.52,6.61 -1.22,13.2 -1.7,19.81 -0.49,6.81 -1.1,13.62 -1.08,20.43 0,4.53 3.25,6.42 8.41,6.92 11.19,1.07 22.4,2.17 33.5,3.89 7.59,1.18 10.46,5.15 9.83,12.62 a 173.83,173.83 0 0 1 -2.84,21 8.12,8.12 0 0 1 -8.57,6.71 c -5.14,-0.24 -10.52,-2.38 -15.28,-1.33 -3.68,0.81 -7.15,0.77 -10.73,1 -1,0.06 -1.92,0 -2.87,0 z"
     id="black-ends-logo-l"
     inkscape:label="L">
    <title
       id="title2418">L</title>
  </path>
  <path
     class="black-ends-logo-letter"
     d="m 89.077192,257.15 c -2.25,1 -3.92,2.21 -5.66,2.31 -3.35,0.18 -6.71,3.77 -10.11,0.18 l -3.35,3.91 c -11.16,-7 -23.38,-7 -35.84,-5.1 -3,0.45 -7.36,-3.32 -7.14,-6.44 -9.18,1.11 -15.77,-4.73 -15.06,-15.71 a 79.07,79.07 0 0 0 0,-9.49 c -0.59,-10.22 0,-20.75 -2.3900002,-30.55 -1.91,-7.92 0.18,-15.8 -1.81,-23.18 -2.74,-10.18 0.15,-20.62 -2.11,-30.37 -2.59,-11.19 -0.72,-22.2 -1.68,-33.22 -0.57,-6.56 -0.17,-13.52 -2.33,-19.54 -2.15999998,-6.02 -1.32999998,-11.53 -1.56999998,-17.27 -0.29,-7.07 1.67999998,-8.8 8.78999998,-8.8 7.3300002,0 14.6800002,0.26 22.0000002,-0.07 7.57,-0.35 15.09,-1.58 22.66,-1.86 16,-0.61 30.16,4.47 41.38,16 4.66,4.81 8.129998,10.78 12.069998,16.14 3.87,-4.44 4.92,-3.82 9.54,1.24 6.14,6.73 7.13,14.5 7.65,23 0.54,8.85 -5,14.7 -8.92,21.35 -2.2,3.72 -5.24,7 -8,10.34 -0.87,1.07 -2.48,1.73 -2.92,2.9 -0.67,1.73 -1.08,5.31 -0.77,5.41 4.7,1.46 4.76,5.14 4.38,9.31 4.34,0.07 8.45,0.3 8.24,5.69 1.17,-0.14 2.92,-0.52 3,-0.32 2.42,6.9 9.55,11.3 9.9,19.36 0.3,7 1.59,14 1.77,21 0.09,3.68 -1,7.46 -2,11.08 a 93.63,93.63 0 0 1 -4.63,13.74 c -1.08,2.4 -3.25,4.48 -5.32,6.23 -4.4,3.73 -7.47,9.65 -14.78,8.83 1.65,2.53 2.46,4.22 -1.37,4.29 -3.829998,0.07 -7.859998,0.67 -11.789998,0.76 -0.89,0.05 -1.76,-1.1 -1.83,-1.15 z m -55.12,-161.47 a 21.71,21.71 0 0 0 0.26,2.71 c 2.23,8.81 5.32,17.49 6.54,26.43 2.1,15.37 2.29,16.06 17.71,16.06 h 2 c 11,0 19.51,-7 21.47,-17.61 1.57,-8.51 -5.72,-22 -14.05,-25.4 -11.02,-4.44 -22.47,-0.75 -33.93,-2.19 z m 5.36,78.2 c 0.78,3.91 1,6 1.61,8 2.24,7.88 4.63,15.72 6.84,23.62 1.13,4 0.72,9.65 3.3,11.82 2.58,2.17 8.3,0.53 12.31,1.67 5.65,1.61 10.2,0.54 14.64,-3 1.61,-1.29 5.31,-1.68 5.45,-2.8 0.89,-7.13 7,-13.1 2.83,-21.57 -3.27,-6.62 -6.55,-13.16 -13.56,-14.55 -10.53,-2.06 -21.46,-2.13 -33.42,-3.19 z"
     id="black-ends-logo-b"
     inkscape:label="B">
    <title
       id="title2416">B</title>
  </path>
</svg>
